<mxfile host="app.diagrams.net" agent="Mozilla/5.0 (Windows NT 10.0; Win64; x64) AppleWebKit/537.36 (KHTML, like Gecko) Chrome/130.0.0.0 Safari/537.36" version="24.8.6">
  <diagram name="PÃ¡gina-1" id="fkr6_6AQymIkWMA3oZSN">
    <mxGraphModel dx="4412" dy="1930" grid="1" gridSize="10" guides="1" tooltips="1" connect="1" arrows="1" fold="1" page="1" pageScale="1" pageWidth="827" pageHeight="1169" math="0" shadow="0">
      <root>
        <mxCell id="0" />
        <mxCell id="1" parent="0" />
        <mxCell id="gqRpMGae4kCMWZQsj0ob-34" style="edgeStyle=orthogonalEdgeStyle;rounded=0;orthogonalLoop=1;jettySize=auto;html=1;" edge="1" parent="1" source="gqRpMGae4kCMWZQsj0ob-1" target="gqRpMGae4kCMWZQsj0ob-25">
          <mxGeometry relative="1" as="geometry">
            <Array as="points">
              <mxPoint x="1160" y="1140" />
            </Array>
          </mxGeometry>
        </mxCell>
        <mxCell id="gqRpMGae4kCMWZQsj0ob-108" style="edgeStyle=orthogonalEdgeStyle;rounded=0;orthogonalLoop=1;jettySize=auto;html=1;entryX=1;entryY=0.5;entryDx=0;entryDy=0;" edge="1" parent="1" source="gqRpMGae4kCMWZQsj0ob-1" target="gqRpMGae4kCMWZQsj0ob-24">
          <mxGeometry relative="1" as="geometry">
            <Array as="points">
              <mxPoint x="1100" y="1220" />
            </Array>
          </mxGeometry>
        </mxCell>
        <mxCell id="gqRpMGae4kCMWZQsj0ob-109" style="edgeStyle=orthogonalEdgeStyle;rounded=0;orthogonalLoop=1;jettySize=auto;html=1;entryX=1;entryY=0.5;entryDx=0;entryDy=0;" edge="1" parent="1" source="gqRpMGae4kCMWZQsj0ob-1" target="gqRpMGae4kCMWZQsj0ob-23">
          <mxGeometry relative="1" as="geometry">
            <Array as="points">
              <mxPoint x="1120" y="1140" />
            </Array>
          </mxGeometry>
        </mxCell>
        <mxCell id="gqRpMGae4kCMWZQsj0ob-110" style="edgeStyle=orthogonalEdgeStyle;rounded=0;orthogonalLoop=1;jettySize=auto;html=1;" edge="1" parent="1" source="gqRpMGae4kCMWZQsj0ob-1" target="gqRpMGae4kCMWZQsj0ob-30">
          <mxGeometry relative="1" as="geometry" />
        </mxCell>
        <mxCell id="gqRpMGae4kCMWZQsj0ob-111" style="edgeStyle=orthogonalEdgeStyle;rounded=0;orthogonalLoop=1;jettySize=auto;html=1;entryX=1;entryY=0.5;entryDx=0;entryDy=0;" edge="1" parent="1" source="gqRpMGae4kCMWZQsj0ob-1" target="gqRpMGae4kCMWZQsj0ob-22">
          <mxGeometry relative="1" as="geometry">
            <Array as="points">
              <mxPoint x="1100" y="1380" />
            </Array>
          </mxGeometry>
        </mxCell>
        <mxCell id="gqRpMGae4kCMWZQsj0ob-112" style="edgeStyle=orthogonalEdgeStyle;rounded=0;orthogonalLoop=1;jettySize=auto;html=1;entryX=1;entryY=0.5;entryDx=0;entryDy=0;" edge="1" parent="1" source="gqRpMGae4kCMWZQsj0ob-1" target="gqRpMGae4kCMWZQsj0ob-26">
          <mxGeometry relative="1" as="geometry">
            <Array as="points">
              <mxPoint x="1120" y="1460" />
            </Array>
          </mxGeometry>
        </mxCell>
        <mxCell id="gqRpMGae4kCMWZQsj0ob-113" style="edgeStyle=orthogonalEdgeStyle;rounded=0;orthogonalLoop=1;jettySize=auto;html=1;entryX=0.5;entryY=0;entryDx=0;entryDy=0;" edge="1" parent="1" source="gqRpMGae4kCMWZQsj0ob-1" target="gqRpMGae4kCMWZQsj0ob-27">
          <mxGeometry relative="1" as="geometry" />
        </mxCell>
        <mxCell id="gqRpMGae4kCMWZQsj0ob-114" style="edgeStyle=orthogonalEdgeStyle;rounded=0;orthogonalLoop=1;jettySize=auto;html=1;" edge="1" parent="1" source="gqRpMGae4kCMWZQsj0ob-1" target="gqRpMGae4kCMWZQsj0ob-29">
          <mxGeometry relative="1" as="geometry">
            <Array as="points">
              <mxPoint x="1160" y="1380" />
              <mxPoint x="1240" y="1380" />
            </Array>
          </mxGeometry>
        </mxCell>
        <mxCell id="gqRpMGae4kCMWZQsj0ob-1" value="EMPLEADO" style="whiteSpace=wrap;html=1;align=center;fillColor=#dae8fc;strokeColor=#6c8ebf;" vertex="1" parent="1">
          <mxGeometry x="1080" y="1280" width="120" height="40" as="geometry" />
        </mxCell>
        <mxCell id="gqRpMGae4kCMWZQsj0ob-8" style="edgeStyle=orthogonalEdgeStyle;rounded=0;orthogonalLoop=1;jettySize=auto;html=1;" edge="1" parent="1" source="gqRpMGae4kCMWZQsj0ob-2" target="gqRpMGae4kCMWZQsj0ob-3">
          <mxGeometry relative="1" as="geometry">
            <Array as="points">
              <mxPoint x="990" y="590" />
              <mxPoint x="990" y="590" />
            </Array>
          </mxGeometry>
        </mxCell>
        <mxCell id="gqRpMGae4kCMWZQsj0ob-9" style="edgeStyle=orthogonalEdgeStyle;rounded=0;orthogonalLoop=1;jettySize=auto;html=1;entryX=1;entryY=0.5;entryDx=0;entryDy=0;" edge="1" parent="1" source="gqRpMGae4kCMWZQsj0ob-2" target="gqRpMGae4kCMWZQsj0ob-7">
          <mxGeometry relative="1" as="geometry">
            <Array as="points">
              <mxPoint x="940" y="380" />
            </Array>
          </mxGeometry>
        </mxCell>
        <mxCell id="gqRpMGae4kCMWZQsj0ob-17" style="edgeStyle=orthogonalEdgeStyle;rounded=0;orthogonalLoop=1;jettySize=auto;html=1;entryX=1;entryY=0.5;entryDx=0;entryDy=0;" edge="1" parent="1" source="gqRpMGae4kCMWZQsj0ob-2" target="gqRpMGae4kCMWZQsj0ob-16">
          <mxGeometry relative="1" as="geometry">
            <Array as="points">
              <mxPoint x="940" y="540" />
            </Array>
          </mxGeometry>
        </mxCell>
        <mxCell id="gqRpMGae4kCMWZQsj0ob-105" style="edgeStyle=orthogonalEdgeStyle;rounded=0;orthogonalLoop=1;jettySize=auto;html=1;" edge="1" parent="1" source="gqRpMGae4kCMWZQsj0ob-2" target="gqRpMGae4kCMWZQsj0ob-21">
          <mxGeometry relative="1" as="geometry">
            <Array as="points">
              <mxPoint x="960" y="540" />
              <mxPoint x="960" y="540" />
            </Array>
          </mxGeometry>
        </mxCell>
        <mxCell id="gqRpMGae4kCMWZQsj0ob-106" style="edgeStyle=orthogonalEdgeStyle;rounded=0;orthogonalLoop=1;jettySize=auto;html=1;entryX=0.5;entryY=1;entryDx=0;entryDy=0;" edge="1" parent="1" source="gqRpMGae4kCMWZQsj0ob-2" target="gqRpMGae4kCMWZQsj0ob-10">
          <mxGeometry relative="1" as="geometry">
            <Array as="points">
              <mxPoint x="960" y="340" />
              <mxPoint x="890" y="340" />
            </Array>
          </mxGeometry>
        </mxCell>
        <mxCell id="gqRpMGae4kCMWZQsj0ob-107" style="edgeStyle=orthogonalEdgeStyle;rounded=0;orthogonalLoop=1;jettySize=auto;html=1;entryX=0.5;entryY=1;entryDx=0;entryDy=0;" edge="1" parent="1">
          <mxGeometry relative="1" as="geometry">
            <mxPoint x="975" y="440" as="sourcePoint" />
            <mxPoint x="985" y="240" as="targetPoint" />
            <Array as="points">
              <mxPoint x="985" y="440" />
            </Array>
          </mxGeometry>
        </mxCell>
        <mxCell id="gqRpMGae4kCMWZQsj0ob-2" value="SUCURSAL" style="whiteSpace=wrap;html=1;align=center;fillColor=#dae8fc;strokeColor=#6c8ebf;" vertex="1" parent="1">
          <mxGeometry x="920" y="440" width="100" height="40" as="geometry" />
        </mxCell>
        <mxCell id="gqRpMGae4kCMWZQsj0ob-3" value="ciudad" style="ellipse;whiteSpace=wrap;html=1;align=center;fillColor=#d5e8d4;strokeColor=#82b366;" vertex="1" parent="1">
          <mxGeometry x="930" y="680" width="100" height="40" as="geometry" />
        </mxCell>
        <mxCell id="gqRpMGae4kCMWZQsj0ob-93" style="edgeStyle=orthogonalEdgeStyle;rounded=0;orthogonalLoop=1;jettySize=auto;html=1;entryX=1;entryY=0.5;entryDx=0;entryDy=0;" edge="1" parent="1" source="gqRpMGae4kCMWZQsj0ob-5" target="gqRpMGae4kCMWZQsj0ob-59">
          <mxGeometry relative="1" as="geometry">
            <Array as="points">
              <mxPoint x="170" y="340" />
            </Array>
          </mxGeometry>
        </mxCell>
        <mxCell id="gqRpMGae4kCMWZQsj0ob-94" style="edgeStyle=orthogonalEdgeStyle;rounded=0;orthogonalLoop=1;jettySize=auto;html=1;entryX=1;entryY=0.5;entryDx=0;entryDy=0;" edge="1" parent="1" source="gqRpMGae4kCMWZQsj0ob-5" target="gqRpMGae4kCMWZQsj0ob-67">
          <mxGeometry relative="1" as="geometry">
            <Array as="points">
              <mxPoint x="180" y="260" />
            </Array>
          </mxGeometry>
        </mxCell>
        <mxCell id="gqRpMGae4kCMWZQsj0ob-95" style="edgeStyle=orthogonalEdgeStyle;rounded=0;orthogonalLoop=1;jettySize=auto;html=1;entryX=1;entryY=0.5;entryDx=0;entryDy=0;" edge="1" parent="1" target="gqRpMGae4kCMWZQsj0ob-65">
          <mxGeometry relative="1" as="geometry">
            <mxPoint x="190" y="400" as="sourcePoint" />
            <mxPoint x="180" y="180" as="targetPoint" />
            <Array as="points">
              <mxPoint x="190" y="180" />
            </Array>
          </mxGeometry>
        </mxCell>
        <mxCell id="gqRpMGae4kCMWZQsj0ob-96" style="edgeStyle=orthogonalEdgeStyle;rounded=0;orthogonalLoop=1;jettySize=auto;html=1;entryX=0.5;entryY=1;entryDx=0;entryDy=0;" edge="1" parent="1" source="gqRpMGae4kCMWZQsj0ob-5" target="gqRpMGae4kCMWZQsj0ob-62">
          <mxGeometry relative="1" as="geometry" />
        </mxCell>
        <mxCell id="gqRpMGae4kCMWZQsj0ob-97" style="edgeStyle=orthogonalEdgeStyle;rounded=0;orthogonalLoop=1;jettySize=auto;html=1;entryX=1;entryY=0.5;entryDx=0;entryDy=0;" edge="1" parent="1" source="gqRpMGae4kCMWZQsj0ob-5" target="gqRpMGae4kCMWZQsj0ob-61">
          <mxGeometry relative="1" as="geometry">
            <Array as="points">
              <mxPoint x="170" y="500" />
            </Array>
          </mxGeometry>
        </mxCell>
        <mxCell id="gqRpMGae4kCMWZQsj0ob-98" style="edgeStyle=orthogonalEdgeStyle;rounded=0;orthogonalLoop=1;jettySize=auto;html=1;entryX=1;entryY=0.5;entryDx=0;entryDy=0;" edge="1" parent="1" source="gqRpMGae4kCMWZQsj0ob-5" target="gqRpMGae4kCMWZQsj0ob-64">
          <mxGeometry relative="1" as="geometry">
            <Array as="points">
              <mxPoint x="180" y="580" />
            </Array>
          </mxGeometry>
        </mxCell>
        <mxCell id="gqRpMGae4kCMWZQsj0ob-99" style="edgeStyle=orthogonalEdgeStyle;rounded=0;orthogonalLoop=1;jettySize=auto;html=1;entryX=1;entryY=0.5;entryDx=0;entryDy=0;" edge="1" parent="1" source="gqRpMGae4kCMWZQsj0ob-5" target="gqRpMGae4kCMWZQsj0ob-66">
          <mxGeometry relative="1" as="geometry">
            <Array as="points">
              <mxPoint x="190" y="660" />
            </Array>
          </mxGeometry>
        </mxCell>
        <mxCell id="gqRpMGae4kCMWZQsj0ob-100" style="edgeStyle=orthogonalEdgeStyle;rounded=0;orthogonalLoop=1;jettySize=auto;html=1;entryX=0.5;entryY=0;entryDx=0;entryDy=0;" edge="1" parent="1" source="gqRpMGae4kCMWZQsj0ob-5" target="gqRpMGae4kCMWZQsj0ob-63">
          <mxGeometry relative="1" as="geometry" />
        </mxCell>
        <mxCell id="gqRpMGae4kCMWZQsj0ob-122" style="edgeStyle=orthogonalEdgeStyle;rounded=0;orthogonalLoop=1;jettySize=auto;html=1;exitX=0.75;exitY=1;exitDx=0;exitDy=0;entryX=0;entryY=0.5;entryDx=0;entryDy=0;" edge="1" parent="1" source="gqRpMGae4kCMWZQsj0ob-5" target="gqRpMGae4kCMWZQsj0ob-60">
          <mxGeometry relative="1" as="geometry">
            <Array as="points">
              <mxPoint x="210" y="440" />
              <mxPoint x="210" y="660" />
            </Array>
          </mxGeometry>
        </mxCell>
        <mxCell id="gqRpMGae4kCMWZQsj0ob-5" value="VEHICULO" style="whiteSpace=wrap;html=1;align=center;fillColor=#dae8fc;strokeColor=#6c8ebf;" vertex="1" parent="1">
          <mxGeometry x="150" y="400" width="100" height="40" as="geometry" />
        </mxCell>
        <mxCell id="gqRpMGae4kCMWZQsj0ob-80" style="edgeStyle=orthogonalEdgeStyle;rounded=0;orthogonalLoop=1;jettySize=auto;html=1;exitX=0;exitY=0.25;exitDx=0;exitDy=0;" edge="1" parent="1" source="gqRpMGae4kCMWZQsj0ob-6" target="gqRpMGae4kCMWZQsj0ob-68">
          <mxGeometry relative="1" as="geometry" />
        </mxCell>
        <mxCell id="gqRpMGae4kCMWZQsj0ob-81" style="edgeStyle=orthogonalEdgeStyle;rounded=0;orthogonalLoop=1;jettySize=auto;html=1;entryX=1;entryY=0.5;entryDx=0;entryDy=0;" edge="1" parent="1" source="gqRpMGae4kCMWZQsj0ob-6" target="gqRpMGae4kCMWZQsj0ob-69">
          <mxGeometry relative="1" as="geometry">
            <Array as="points">
              <mxPoint x="360" y="1160" />
            </Array>
          </mxGeometry>
        </mxCell>
        <mxCell id="gqRpMGae4kCMWZQsj0ob-82" style="edgeStyle=orthogonalEdgeStyle;rounded=0;orthogonalLoop=1;jettySize=auto;html=1;entryX=1;entryY=0.5;entryDx=0;entryDy=0;" edge="1" parent="1" source="gqRpMGae4kCMWZQsj0ob-6" target="gqRpMGae4kCMWZQsj0ob-72">
          <mxGeometry relative="1" as="geometry">
            <Array as="points">
              <mxPoint x="380" y="1075" />
            </Array>
          </mxGeometry>
        </mxCell>
        <mxCell id="gqRpMGae4kCMWZQsj0ob-83" style="edgeStyle=orthogonalEdgeStyle;rounded=0;orthogonalLoop=1;jettySize=auto;html=1;entryX=1;entryY=0.5;entryDx=0;entryDy=0;" edge="1" parent="1" source="gqRpMGae4kCMWZQsj0ob-6" target="gqRpMGae4kCMWZQsj0ob-76">
          <mxGeometry relative="1" as="geometry">
            <Array as="points">
              <mxPoint x="400" y="1000" />
            </Array>
          </mxGeometry>
        </mxCell>
        <mxCell id="gqRpMGae4kCMWZQsj0ob-85" style="edgeStyle=orthogonalEdgeStyle;rounded=0;orthogonalLoop=1;jettySize=auto;html=1;entryX=0.5;entryY=1;entryDx=0;entryDy=0;" edge="1" parent="1" source="gqRpMGae4kCMWZQsj0ob-6" target="gqRpMGae4kCMWZQsj0ob-75">
          <mxGeometry relative="1" as="geometry">
            <Array as="points">
              <mxPoint x="420" y="980" />
              <mxPoint x="370" y="980" />
            </Array>
          </mxGeometry>
        </mxCell>
        <mxCell id="gqRpMGae4kCMWZQsj0ob-88" style="edgeStyle=orthogonalEdgeStyle;rounded=0;orthogonalLoop=1;jettySize=auto;html=1;entryX=1;entryY=0.5;entryDx=0;entryDy=0;" edge="1" parent="1" source="gqRpMGae4kCMWZQsj0ob-6" target="gqRpMGae4kCMWZQsj0ob-71">
          <mxGeometry relative="1" as="geometry">
            <Array as="points">
              <mxPoint x="360" y="1390" />
            </Array>
          </mxGeometry>
        </mxCell>
        <mxCell id="gqRpMGae4kCMWZQsj0ob-89" style="edgeStyle=orthogonalEdgeStyle;rounded=0;orthogonalLoop=1;jettySize=auto;html=1;entryX=1;entryY=0.5;entryDx=0;entryDy=0;" edge="1" parent="1">
          <mxGeometry relative="1" as="geometry">
            <mxPoint x="380.0476190476188" y="1259.95" as="sourcePoint" />
            <mxPoint x="310.0000000000082" y="1479.95" as="targetPoint" />
            <Array as="points">
              <mxPoint x="380" y="1479.95" />
            </Array>
          </mxGeometry>
        </mxCell>
        <mxCell id="gqRpMGae4kCMWZQsj0ob-90" style="edgeStyle=orthogonalEdgeStyle;rounded=0;orthogonalLoop=1;jettySize=auto;html=1;" edge="1" parent="1" source="gqRpMGae4kCMWZQsj0ob-6" target="gqRpMGae4kCMWZQsj0ob-73">
          <mxGeometry relative="1" as="geometry">
            <Array as="points">
              <mxPoint x="400" y="1500" />
              <mxPoint x="370" y="1500" />
            </Array>
          </mxGeometry>
        </mxCell>
        <mxCell id="gqRpMGae4kCMWZQsj0ob-91" style="edgeStyle=orthogonalEdgeStyle;rounded=0;orthogonalLoop=1;jettySize=auto;html=1;entryX=0.5;entryY=0;entryDx=0;entryDy=0;" edge="1" parent="1" source="gqRpMGae4kCMWZQsj0ob-6" target="gqRpMGae4kCMWZQsj0ob-77">
          <mxGeometry relative="1" as="geometry">
            <Array as="points">
              <mxPoint x="420" y="1500" />
              <mxPoint x="450" y="1500" />
              <mxPoint x="450" y="1620" />
            </Array>
          </mxGeometry>
        </mxCell>
        <mxCell id="gqRpMGae4kCMWZQsj0ob-162" style="edgeStyle=orthogonalEdgeStyle;rounded=0;orthogonalLoop=1;jettySize=auto;html=1;entryX=0.5;entryY=0;entryDx=0;entryDy=0;" edge="1" parent="1" source="gqRpMGae4kCMWZQsj0ob-6" target="gqRpMGae4kCMWZQsj0ob-70">
          <mxGeometry relative="1" as="geometry">
            <Array as="points">
              <mxPoint x="440" y="1350" />
              <mxPoint x="490" y="1350" />
            </Array>
          </mxGeometry>
        </mxCell>
        <mxCell id="gqRpMGae4kCMWZQsj0ob-167" style="edgeStyle=orthogonalEdgeStyle;rounded=0;orthogonalLoop=1;jettySize=auto;html=1;entryX=0.5;entryY=1;entryDx=0;entryDy=0;" edge="1" parent="1" source="gqRpMGae4kCMWZQsj0ob-6" target="gqRpMGae4kCMWZQsj0ob-78">
          <mxGeometry relative="1" as="geometry">
            <Array as="points">
              <mxPoint x="440" y="890" />
              <mxPoint x="410" y="890" />
            </Array>
          </mxGeometry>
        </mxCell>
        <mxCell id="gqRpMGae4kCMWZQsj0ob-6" value="ALQUILER" style="whiteSpace=wrap;html=1;align=center;fillColor=#dae8fc;strokeColor=#6c8ebf;" vertex="1" parent="1">
          <mxGeometry x="350" y="1220" width="100" height="40" as="geometry" />
        </mxCell>
        <mxCell id="gqRpMGae4kCMWZQsj0ob-7" value="direcciÃ³n" style="ellipse;whiteSpace=wrap;html=1;align=center;fillColor=#d5e8d4;strokeColor=#82b366;" vertex="1" parent="1">
          <mxGeometry x="760" y="360" width="100" height="40" as="geometry" />
        </mxCell>
        <mxCell id="gqRpMGae4kCMWZQsj0ob-10" value="ubicaciÃ³n" style="ellipse;whiteSpace=wrap;html=1;align=center;fillColor=#d5e8d4;strokeColor=#82b366;" vertex="1" parent="1">
          <mxGeometry x="840" y="280" width="100" height="40" as="geometry" />
        </mxCell>
        <mxCell id="gqRpMGae4kCMWZQsj0ob-12" value="telÃ©fono" style="ellipse;whiteSpace=wrap;html=1;align=center;fillColor=#d5e8d4;strokeColor=#82b366;" vertex="1" parent="1">
          <mxGeometry x="930" y="200" width="100" height="40" as="geometry" />
        </mxCell>
        <mxCell id="gqRpMGae4kCMWZQsj0ob-16" value="correo_electronico" style="ellipse;whiteSpace=wrap;html=1;align=center;fillColor=#d5e8d4;strokeColor=#82b366;" vertex="1" parent="1">
          <mxGeometry x="760" y="520" width="120" height="40" as="geometry" />
        </mxCell>
        <mxCell id="gqRpMGae4kCMWZQsj0ob-21" value="celular" style="ellipse;shape=doubleEllipse;margin=3;whiteSpace=wrap;html=1;align=center;fillColor=#ffe6cc;strokeColor=#d79b00;" vertex="1" parent="1">
          <mxGeometry x="840" y="600" width="100" height="40" as="geometry" />
        </mxCell>
        <mxCell id="gqRpMGae4kCMWZQsj0ob-22" value="apellidos" style="ellipse;whiteSpace=wrap;html=1;align=center;fillColor=#d5e8d4;strokeColor=#82b366;" vertex="1" parent="1">
          <mxGeometry x="930" y="1360" width="100" height="40" as="geometry" />
        </mxCell>
        <mxCell id="gqRpMGae4kCMWZQsj0ob-23" value="sucursal" style="ellipse;whiteSpace=wrap;html=1;align=center;fillColor=#d5e8d4;strokeColor=#82b366;" vertex="1" parent="1">
          <mxGeometry x="990" y="1120" width="100" height="40" as="geometry" />
        </mxCell>
        <mxCell id="gqRpMGae4kCMWZQsj0ob-24" value="cedula" style="ellipse;whiteSpace=wrap;html=1;align=center;fillColor=#d5e8d4;strokeColor=#82b366;" vertex="1" parent="1">
          <mxGeometry x="930" y="1200" width="100" height="40" as="geometry" />
        </mxCell>
        <mxCell id="gqRpMGae4kCMWZQsj0ob-25" value="nombres" style="ellipse;whiteSpace=wrap;html=1;align=center;fillColor=#d5e8d4;strokeColor=#82b366;" vertex="1" parent="1">
          <mxGeometry x="1210" y="1120" width="100" height="40" as="geometry" />
        </mxCell>
        <mxCell id="gqRpMGae4kCMWZQsj0ob-26" value="direcciÃ³n" style="ellipse;whiteSpace=wrap;html=1;align=center;fillColor=#d5e8d4;strokeColor=#82b366;" vertex="1" parent="1">
          <mxGeometry x="990" y="1440" width="100" height="40" as="geometry" />
        </mxCell>
        <mxCell id="gqRpMGae4kCMWZQsj0ob-27" value="ciudad_residencia" style="ellipse;whiteSpace=wrap;html=1;align=center;fillColor=#d5e8d4;strokeColor=#82b366;" vertex="1" parent="1">
          <mxGeometry x="1080" y="1520" width="120" height="40" as="geometry" />
        </mxCell>
        <mxCell id="gqRpMGae4kCMWZQsj0ob-29" value="celular" style="ellipse;shape=doubleEllipse;margin=3;whiteSpace=wrap;html=1;align=center;fillColor=#ffe6cc;strokeColor=#d79b00;" vertex="1" parent="1">
          <mxGeometry x="1190" y="1440" width="100" height="40" as="geometry" />
        </mxCell>
        <mxCell id="gqRpMGae4kCMWZQsj0ob-30" value="correo_electronico" style="ellipse;whiteSpace=wrap;html=1;align=center;fillColor=#d5e8d4;strokeColor=#82b366;" vertex="1" parent="1">
          <mxGeometry x="1080" y="1040" width="120" height="40" as="geometry" />
        </mxCell>
        <mxCell id="gqRpMGae4kCMWZQsj0ob-43" style="edgeStyle=orthogonalEdgeStyle;rounded=0;orthogonalLoop=1;jettySize=auto;html=1;entryX=1;entryY=0.5;entryDx=0;entryDy=0;" edge="1" parent="1" source="gqRpMGae4kCMWZQsj0ob-48" target="gqRpMGae4kCMWZQsj0ob-51">
          <mxGeometry relative="1" as="geometry">
            <Array as="points">
              <mxPoint x="-330" y="1340" />
            </Array>
          </mxGeometry>
        </mxCell>
        <mxCell id="gqRpMGae4kCMWZQsj0ob-44" style="edgeStyle=orthogonalEdgeStyle;rounded=0;orthogonalLoop=1;jettySize=auto;html=1;" edge="1" parent="1" source="gqRpMGae4kCMWZQsj0ob-48" target="gqRpMGae4kCMWZQsj0ob-52">
          <mxGeometry relative="1" as="geometry" />
        </mxCell>
        <mxCell id="gqRpMGae4kCMWZQsj0ob-45" style="edgeStyle=orthogonalEdgeStyle;rounded=0;orthogonalLoop=1;jettySize=auto;html=1;entryX=1;entryY=0.5;entryDx=0;entryDy=0;" edge="1" parent="1" source="gqRpMGae4kCMWZQsj0ob-48" target="gqRpMGae4kCMWZQsj0ob-49">
          <mxGeometry relative="1" as="geometry">
            <Array as="points">
              <mxPoint x="-330" y="1500" />
            </Array>
          </mxGeometry>
        </mxCell>
        <mxCell id="gqRpMGae4kCMWZQsj0ob-101" style="edgeStyle=orthogonalEdgeStyle;rounded=0;orthogonalLoop=1;jettySize=auto;html=1;entryX=1;entryY=0.5;entryDx=0;entryDy=0;" edge="1" parent="1" source="gqRpMGae4kCMWZQsj0ob-48" target="gqRpMGae4kCMWZQsj0ob-55">
          <mxGeometry relative="1" as="geometry">
            <Array as="points">
              <mxPoint x="-300" y="1260" />
            </Array>
          </mxGeometry>
        </mxCell>
        <mxCell id="gqRpMGae4kCMWZQsj0ob-102" style="edgeStyle=orthogonalEdgeStyle;rounded=0;orthogonalLoop=1;jettySize=auto;html=1;entryX=0.5;entryY=1;entryDx=0;entryDy=0;" edge="1" parent="1" source="gqRpMGae4kCMWZQsj0ob-48" target="gqRpMGae4kCMWZQsj0ob-56">
          <mxGeometry relative="1" as="geometry">
            <Array as="points">
              <mxPoint x="-280" y="1350" />
              <mxPoint x="-280" y="1350" />
            </Array>
          </mxGeometry>
        </mxCell>
        <mxCell id="gqRpMGae4kCMWZQsj0ob-103" style="edgeStyle=orthogonalEdgeStyle;rounded=0;orthogonalLoop=1;jettySize=auto;html=1;entryX=1;entryY=0.5;entryDx=0;entryDy=0;" edge="1" parent="1" source="gqRpMGae4kCMWZQsj0ob-48" target="gqRpMGae4kCMWZQsj0ob-53">
          <mxGeometry relative="1" as="geometry">
            <Array as="points">
              <mxPoint x="-300" y="1580" />
            </Array>
          </mxGeometry>
        </mxCell>
        <mxCell id="gqRpMGae4kCMWZQsj0ob-104" style="edgeStyle=orthogonalEdgeStyle;rounded=0;orthogonalLoop=1;jettySize=auto;html=1;" edge="1" parent="1" target="gqRpMGae4kCMWZQsj0ob-54">
          <mxGeometry relative="1" as="geometry">
            <mxPoint x="-260" y="1430" as="sourcePoint" />
            <Array as="points">
              <mxPoint x="-280" y="1500" />
              <mxPoint x="-280" y="1500" />
            </Array>
          </mxGeometry>
        </mxCell>
        <mxCell id="gqRpMGae4kCMWZQsj0ob-48" value="CLIENTE" style="whiteSpace=wrap;html=1;align=center;fillColor=#dae8fc;strokeColor=#6c8ebf;" vertex="1" parent="1">
          <mxGeometry x="-350" y="1400" width="120" height="40" as="geometry" />
        </mxCell>
        <mxCell id="gqRpMGae4kCMWZQsj0ob-49" value="apellidos" style="ellipse;whiteSpace=wrap;html=1;align=center;fillColor=#d5e8d4;strokeColor=#82b366;" vertex="1" parent="1">
          <mxGeometry x="-500" y="1480" width="100" height="40" as="geometry" />
        </mxCell>
        <mxCell id="gqRpMGae4kCMWZQsj0ob-51" value="cedula" style="ellipse;whiteSpace=wrap;html=1;align=center;fillColor=#d5e8d4;strokeColor=#82b366;" vertex="1" parent="1">
          <mxGeometry x="-500" y="1320" width="100" height="40" as="geometry" />
        </mxCell>
        <mxCell id="gqRpMGae4kCMWZQsj0ob-52" value="nombres" style="ellipse;whiteSpace=wrap;html=1;align=center;fillColor=#d5e8d4;strokeColor=#82b366;" vertex="1" parent="1">
          <mxGeometry x="-580" y="1400" width="100" height="40" as="geometry" />
        </mxCell>
        <mxCell id="gqRpMGae4kCMWZQsj0ob-53" value="direcciÃ³n" style="ellipse;whiteSpace=wrap;html=1;align=center;fillColor=#d5e8d4;strokeColor=#82b366;" vertex="1" parent="1">
          <mxGeometry x="-420" y="1560" width="100" height="40" as="geometry" />
        </mxCell>
        <mxCell id="gqRpMGae4kCMWZQsj0ob-54" value="ciudad_residencia" style="ellipse;whiteSpace=wrap;html=1;align=center;fillColor=#d5e8d4;strokeColor=#82b366;" vertex="1" parent="1">
          <mxGeometry x="-340" y="1640" width="120" height="40" as="geometry" />
        </mxCell>
        <mxCell id="gqRpMGae4kCMWZQsj0ob-55" value="celular" style="ellipse;shape=doubleEllipse;margin=3;whiteSpace=wrap;html=1;align=center;fillColor=#ffe6cc;strokeColor=#d79b00;" vertex="1" parent="1">
          <mxGeometry x="-420" y="1240" width="100" height="40" as="geometry" />
        </mxCell>
        <mxCell id="gqRpMGae4kCMWZQsj0ob-56" value="correo_electronico" style="ellipse;whiteSpace=wrap;html=1;align=center;fillColor=#d5e8d4;strokeColor=#82b366;" vertex="1" parent="1">
          <mxGeometry x="-340" y="1160" width="120" height="40" as="geometry" />
        </mxCell>
        <mxCell id="gqRpMGae4kCMWZQsj0ob-59" value="tipo_vehiculo" style="ellipse;whiteSpace=wrap;html=1;align=center;fillColor=#d5e8d4;strokeColor=#82b366;" vertex="1" parent="1">
          <mxGeometry x="-90" y="320" width="100" height="40" as="geometry" />
        </mxCell>
        <mxCell id="gqRpMGae4kCMWZQsj0ob-60" value="placa" style="ellipse;whiteSpace=wrap;html=1;align=center;fillColor=#d5e8d4;strokeColor=#82b366;" vertex="1" parent="1">
          <mxGeometry x="250" y="640" width="100" height="40" as="geometry" />
        </mxCell>
        <mxCell id="gqRpMGae4kCMWZQsj0ob-61" value="referencia" style="ellipse;whiteSpace=wrap;html=1;align=center;fillColor=#d5e8d4;strokeColor=#82b366;" vertex="1" parent="1">
          <mxGeometry x="-90" y="480" width="100" height="40" as="geometry" />
        </mxCell>
        <mxCell id="gqRpMGae4kCMWZQsj0ob-62" value="modelos" style="ellipse;whiteSpace=wrap;html=1;align=center;fillColor=#d5e8d4;strokeColor=#82b366;" vertex="1" parent="1">
          <mxGeometry x="150" y="80" width="100" height="40" as="geometry" />
        </mxCell>
        <mxCell id="gqRpMGae4kCMWZQsj0ob-63" value="puertas" style="ellipse;whiteSpace=wrap;html=1;align=center;fillColor=#d5e8d4;strokeColor=#82b366;" vertex="1" parent="1">
          <mxGeometry x="150" y="720" width="100" height="40" as="geometry" />
        </mxCell>
        <mxCell id="gqRpMGae4kCMWZQsj0ob-64" value="capacidad" style="ellipse;whiteSpace=wrap;html=1;align=center;fillColor=#d5e8d4;strokeColor=#82b366;" vertex="1" parent="1">
          <mxGeometry x="-10" y="560" width="100" height="40" as="geometry" />
        </mxCell>
        <mxCell id="gqRpMGae4kCMWZQsj0ob-65" value="sunroof" style="ellipse;whiteSpace=wrap;html=1;align=center;fillColor=#d5e8d4;strokeColor=#82b366;" vertex="1" parent="1">
          <mxGeometry x="70" y="160" width="100" height="40" as="geometry" />
        </mxCell>
        <mxCell id="gqRpMGae4kCMWZQsj0ob-66" value="motor" style="ellipse;whiteSpace=wrap;html=1;align=center;fillColor=#d5e8d4;strokeColor=#82b366;" vertex="1" parent="1">
          <mxGeometry x="70" y="640" width="100" height="40" as="geometry" />
        </mxCell>
        <mxCell id="gqRpMGae4kCMWZQsj0ob-67" value="color" style="ellipse;whiteSpace=wrap;html=1;align=center;fillColor=#d5e8d4;strokeColor=#82b366;" vertex="1" parent="1">
          <mxGeometry x="-10" y="240" width="100" height="40" as="geometry" />
        </mxCell>
        <mxCell id="gqRpMGae4kCMWZQsj0ob-68" value="vehiculo" style="ellipse;whiteSpace=wrap;html=1;align=center;fillColor=#d5e8d4;strokeColor=#82b366;" vertex="1" parent="1">
          <mxGeometry x="-10" y="1210" width="100" height="40" as="geometry" />
        </mxCell>
        <mxCell id="gqRpMGae4kCMWZQsj0ob-69" value="cliente" style="ellipse;whiteSpace=wrap;html=1;align=center;fillColor=#d5e8d4;strokeColor=#82b366;" vertex="1" parent="1">
          <mxGeometry x="40" y="1140" width="100" height="40" as="geometry" />
        </mxCell>
        <mxCell id="gqRpMGae4kCMWZQsj0ob-70" value="empleado" style="ellipse;whiteSpace=wrap;html=1;align=center;fillColor=#d5e8d4;strokeColor=#82b366;" vertex="1" parent="1">
          <mxGeometry x="440" y="1440" width="100" height="40" as="geometry" />
        </mxCell>
        <mxCell id="gqRpMGae4kCMWZQsj0ob-71" value="sucursal" style="ellipse;whiteSpace=wrap;html=1;align=center;fillColor=#d5e8d4;strokeColor=#82b366;" vertex="1" parent="1">
          <mxGeometry x="110" y="1370" width="100" height="40" as="geometry" />
        </mxCell>
        <mxCell id="gqRpMGae4kCMWZQsj0ob-72" value="fecha_salida" style="ellipse;whiteSpace=wrap;html=1;align=center;fillColor=#d5e8d4;strokeColor=#82b366;" vertex="1" parent="1">
          <mxGeometry x="110" y="1055.5" width="100" height="40" as="geometry" />
        </mxCell>
        <mxCell id="gqRpMGae4kCMWZQsj0ob-73" value="fecha_llegada" style="ellipse;whiteSpace=wrap;html=1;align=center;fillColor=#d5e8d4;strokeColor=#82b366;" vertex="1" parent="1">
          <mxGeometry x="310" y="1540" width="120" height="40" as="geometry" />
        </mxCell>
        <mxCell id="gqRpMGae4kCMWZQsj0ob-74" value="valor_alquiler_semana" style="ellipse;whiteSpace=wrap;html=1;align=center;fillColor=#d5e8d4;strokeColor=#82b366;" vertex="1" parent="1">
          <mxGeometry x="190" y="1460" width="140" height="40" as="geometry" />
        </mxCell>
        <mxCell id="gqRpMGae4kCMWZQsj0ob-75" value="valor_alquiler_dia" style="ellipse;whiteSpace=wrap;html=1;align=center;fillColor=#d5e8d4;strokeColor=#82b366;" vertex="1" parent="1">
          <mxGeometry x="310" y="900" width="120" height="40" as="geometry" />
        </mxCell>
        <mxCell id="gqRpMGae4kCMWZQsj0ob-76" value="porcentaje_descuento" style="ellipse;whiteSpace=wrap;html=1;align=center;fillColor=#d5e8d4;strokeColor=#82b366;" vertex="1" parent="1">
          <mxGeometry x="190" y="980" width="140" height="40" as="geometry" />
        </mxCell>
        <mxCell id="gqRpMGae4kCMWZQsj0ob-77" value="valor_cotizado" style="ellipse;whiteSpace=wrap;html=1;align=center;fillColor=#d5e8d4;strokeColor=#82b366;" vertex="1" parent="1">
          <mxGeometry x="390" y="1620" width="100" height="40" as="geometry" />
        </mxCell>
        <mxCell id="gqRpMGae4kCMWZQsj0ob-78" value="valor_pagado" style="ellipse;whiteSpace=wrap;html=1;align=center;fillColor=#d5e8d4;strokeColor=#82b366;" vertex="1" parent="1">
          <mxGeometry x="360" y="810" width="100" height="40" as="geometry" />
        </mxCell>
        <mxCell id="gqRpMGae4kCMWZQsj0ob-118" value="puede estar" style="shape=rhombus;perimeter=rhombusPerimeter;whiteSpace=wrap;html=1;align=center;fillColor=#f8cecc;strokeColor=#b85450;" vertex="1" parent="1">
          <mxGeometry x="450" y="320" width="160" height="80" as="geometry" />
        </mxCell>
        <mxCell id="gqRpMGae4kCMWZQsj0ob-119" value="" style="edgeStyle=entityRelationEdgeStyle;fontSize=12;html=1;endArrow=ERoneToMany;rounded=0;exitX=1;exitY=0.25;exitDx=0;exitDy=0;entryX=0;entryY=0.5;entryDx=0;entryDy=0;exitPerimeter=0;" edge="1" parent="1" source="gqRpMGae4kCMWZQsj0ob-5" target="gqRpMGae4kCMWZQsj0ob-118">
          <mxGeometry width="100" height="100" relative="1" as="geometry">
            <mxPoint x="510" y="390" as="sourcePoint" />
            <mxPoint x="440" y="280" as="targetPoint" />
            <Array as="points">
              <mxPoint x="270" y="420" />
            </Array>
          </mxGeometry>
        </mxCell>
        <mxCell id="gqRpMGae4kCMWZQsj0ob-121" value="" style="edgeStyle=entityRelationEdgeStyle;fontSize=12;html=1;endArrow=ERoneToMany;rounded=0;exitX=0;exitY=0.5;exitDx=0;exitDy=0;entryX=1;entryY=0.5;entryDx=0;entryDy=0;" edge="1" parent="1" source="gqRpMGae4kCMWZQsj0ob-2" target="gqRpMGae4kCMWZQsj0ob-118">
          <mxGeometry width="100" height="100" relative="1" as="geometry">
            <mxPoint x="510" y="550" as="sourcePoint" />
            <mxPoint x="660" y="370" as="targetPoint" />
          </mxGeometry>
        </mxCell>
        <mxCell id="gqRpMGae4kCMWZQsj0ob-151" value="Representar un" style="shape=rhombus;perimeter=rhombusPerimeter;whiteSpace=wrap;html=1;align=center;fillColor=#f8cecc;strokeColor=#b85450;" vertex="1" parent="1">
          <mxGeometry x="290" y="520" width="160" height="80" as="geometry" />
        </mxCell>
        <mxCell id="gqRpMGae4kCMWZQsj0ob-152" value="" style="edgeStyle=entityRelationEdgeStyle;fontSize=12;html=1;endArrow=ERoneToMany;rounded=0;exitX=1;exitY=0.75;exitDx=0;exitDy=0;entryX=0;entryY=0.5;entryDx=0;entryDy=0;" edge="1" parent="1" source="gqRpMGae4kCMWZQsj0ob-5" target="gqRpMGae4kCMWZQsj0ob-151">
          <mxGeometry width="100" height="100" relative="1" as="geometry">
            <mxPoint x="260" y="420" as="sourcePoint" />
            <mxPoint x="460" y="370" as="targetPoint" />
            <Array as="points">
              <mxPoint x="280" y="430" />
            </Array>
          </mxGeometry>
        </mxCell>
        <mxCell id="gqRpMGae4kCMWZQsj0ob-154" value="" style="edgeStyle=entityRelationEdgeStyle;fontSize=12;html=1;endArrow=ERoneToMany;rounded=0;exitX=1;exitY=0.25;exitDx=0;exitDy=0;fontStyle=1;entryX=1;entryY=0.5;entryDx=0;entryDy=0;" edge="1" parent="1" source="gqRpMGae4kCMWZQsj0ob-6" target="gqRpMGae4kCMWZQsj0ob-151">
          <mxGeometry width="100" height="100" relative="1" as="geometry">
            <mxPoint x="570" y="820" as="sourcePoint" />
            <mxPoint x="450" y="620" as="targetPoint" />
            <Array as="points">
              <mxPoint x="460" y="1230" />
              <mxPoint x="590" y="830" />
            </Array>
          </mxGeometry>
        </mxCell>
        <mxCell id="gqRpMGae4kCMWZQsj0ob-157" value="Pueden ser" style="shape=rhombus;perimeter=rhombusPerimeter;whiteSpace=wrap;html=1;align=center;fillColor=#f8cecc;strokeColor=#b85450;" vertex="1" parent="1">
          <mxGeometry x="-120" y="1320" width="160" height="80" as="geometry" />
        </mxCell>
        <mxCell id="gqRpMGae4kCMWZQsj0ob-158" value="" style="edgeStyle=entityRelationEdgeStyle;fontSize=12;html=1;endArrow=ERmany;rounded=0;exitX=1;exitY=0.5;exitDx=0;exitDy=0;entryX=0;entryY=0.75;entryDx=0;entryDy=0;" edge="1" parent="1" source="gqRpMGae4kCMWZQsj0ob-157" target="gqRpMGae4kCMWZQsj0ob-6">
          <mxGeometry width="100" height="100" relative="1" as="geometry">
            <mxPoint x="80" y="1373.5" as="sourcePoint" />
            <mxPoint x="180" y="1273.5" as="targetPoint" />
          </mxGeometry>
        </mxCell>
        <mxCell id="gqRpMGae4kCMWZQsj0ob-160" value="" style="edgeStyle=entityRelationEdgeStyle;fontSize=12;html=1;endArrow=ERmany;rounded=0;exitX=0;exitY=0.5;exitDx=0;exitDy=0;" edge="1" parent="1" source="gqRpMGae4kCMWZQsj0ob-157" target="gqRpMGae4kCMWZQsj0ob-48">
          <mxGeometry width="100" height="100" relative="1" as="geometry">
            <mxPoint x="-220" y="1460" as="sourcePoint" />
            <mxPoint x="-100" y="1400" as="targetPoint" />
          </mxGeometry>
        </mxCell>
        <mxCell id="gqRpMGae4kCMWZQsj0ob-163" value="Pueden realizar" style="shape=rhombus;perimeter=rhombusPerimeter;whiteSpace=wrap;html=1;align=center;fillColor=#f8cecc;strokeColor=#b85450;" vertex="1" parent="1">
          <mxGeometry x="880" y="760" width="160" height="80" as="geometry" />
        </mxCell>
        <mxCell id="gqRpMGae4kCMWZQsj0ob-165" value="" style="edgeStyle=entityRelationEdgeStyle;fontSize=12;html=1;endArrow=ERzeroToMany;startArrow=ERmandOne;rounded=0;exitX=1;exitY=0.5;exitDx=0;exitDy=0;entryX=0;entryY=0.5;entryDx=0;entryDy=0;" edge="1" parent="1" source="gqRpMGae4kCMWZQsj0ob-6" target="gqRpMGae4kCMWZQsj0ob-163">
          <mxGeometry width="100" height="100" relative="1" as="geometry">
            <mxPoint x="510" y="1220" as="sourcePoint" />
            <mxPoint x="610" y="1120" as="targetPoint" />
          </mxGeometry>
        </mxCell>
        <mxCell id="gqRpMGae4kCMWZQsj0ob-166" value="" style="edgeStyle=entityRelationEdgeStyle;fontSize=12;html=1;endArrow=ERoneToMany;startArrow=ERzeroToMany;rounded=0;entryX=1;entryY=0.5;entryDx=0;entryDy=0;" edge="1" parent="1" source="gqRpMGae4kCMWZQsj0ob-163" target="gqRpMGae4kCMWZQsj0ob-2">
          <mxGeometry width="100" height="100" relative="1" as="geometry">
            <mxPoint x="1080" y="740" as="sourcePoint" />
            <mxPoint x="1180" y="640" as="targetPoint" />
          </mxGeometry>
        </mxCell>
        <mxCell id="gqRpMGae4kCMWZQsj0ob-168" value="Pueden realizar" style="shape=rhombus;perimeter=rhombusPerimeter;whiteSpace=wrap;html=1;align=center;fillColor=#f8cecc;strokeColor=#b85450;" vertex="1" parent="1">
          <mxGeometry x="640" y="1320" width="160" height="80" as="geometry" />
        </mxCell>
        <mxCell id="gqRpMGae4kCMWZQsj0ob-169" value="" style="edgeStyle=entityRelationEdgeStyle;fontSize=12;html=1;endArrow=ERoneToMany;rounded=0;exitX=1;exitY=0.5;exitDx=0;exitDy=0;" edge="1" parent="1" source="gqRpMGae4kCMWZQsj0ob-168" target="gqRpMGae4kCMWZQsj0ob-1">
          <mxGeometry width="100" height="100" relative="1" as="geometry">
            <mxPoint x="880" y="1390" as="sourcePoint" />
            <mxPoint x="980" y="1290" as="targetPoint" />
          </mxGeometry>
        </mxCell>
        <mxCell id="gqRpMGae4kCMWZQsj0ob-170" value="" style="edgeStyle=entityRelationEdgeStyle;fontSize=12;html=1;endArrow=ERoneToMany;startArrow=ERzeroToOne;rounded=0;exitX=0;exitY=0.5;exitDx=0;exitDy=0;entryX=1;entryY=0.75;entryDx=0;entryDy=0;" edge="1" parent="1" source="gqRpMGae4kCMWZQsj0ob-168" target="gqRpMGae4kCMWZQsj0ob-6">
          <mxGeometry width="100" height="100" relative="1" as="geometry">
            <mxPoint x="490" y="1220" as="sourcePoint" />
            <mxPoint x="690" y="1300" as="targetPoint" />
          </mxGeometry>
        </mxCell>
      </root>
    </mxGraphModel>
  </diagram>
</mxfile>
